@startuml
' ========================================
' start: configuration
' ========================================

skinparam linetype ortho

' ========================================
' end: configuration
' ========================================

' ========================================
' start: definition of entities/classes
' ========================================

class Questionnaire {
  url : uri [0..1]
  identifier : Identifier [0..*]
  version : string [0..1]
  name : string [0..1]
  title : string [0..1]
  ...
}

class QuestionnaireItem {
  linkId : string [1..1]
  code : Coding [0..*]
  text : string [0..1]
  type : code [1..1]
  itemControl : Extension questionnaire-itemControl [0..1]
  minValue : Extension minValue [0..1]
  maxValue : Extension maxValue [0..1]
}


class QuestionnaireResponseItem {
  text : string [0..1]
}

class ValueSet {
  }

' ========================================
' end: definition of entities/classes
' ========================================

' ========================================
' start: definition of notes
' ========================================

note right of QuestionnaireItem::type
  a code for the data type of the item
end note

note right of QuestionnaireItem::itemControl
  predefined FHIR extension http://hl7.org/fhir/StructureDefinition/questionnaire-itemControl
end note

note right of QuestionnaireItem::minValue
  predefined FHIR extension http://hl7.org/fhir/StructureDefinition/minValue
end note

note right of QuestionnaireItem::maxValue
  predefined FHIR extension http://hl7.org/fhir/StructureDefinition/maxValue
end note

' ========================================
' end: definition of notes
' ========================================


' ========================================
' start: definition of associations
' ========================================

Questionnaire *-- "[0..*]" QuestionnaireItem : item
QuestionnaireItem *-- "[0..*]" QuestionnaireItem : item
QuestionnaireItem *-- "[0..*]" Initial : initial
QuestionnaireItem *-- "[0..*]" AnswerOption : answerOption
QuestionnaireItem *-- "[0..*]" EnableWhen : enableWhen
QuestionnaireItem -- "[0..1]" ValueSet : answerValueSet


QuestionnaireResponse *-- "[0..1]" Questionnaire : questionnaire
QuestionnaireResponse *-- "[0..*]" QuestionnaireResponseItem : item
QuestionnaireResponseItem *-- "[0..*]" QuestionnaireResponseItem : item
QuestionnaireResponseItem -- "[1..1]" QuestionnaireItem : linkId
QuestionnaireResponseItem *-- "[0..*]" Answer : answer
Answer *-- "[0..*]" QuestionnaireResponseItem : item

' ========================================
' end: definition of associations
' ========================================
@enduml
