@startuml
' ========================================
' start: configuration
' ========================================

skinparam linetype ortho

' ========================================
' end: configuration
' ========================================

' ========================================
' start: definition of entities/classes
' ========================================

class Designation {
  language : code [0..1]
  use : Coding [0..1]
  value : string [1..1]
}

class Expansion {
  identifier : uri [0..1]
  timestamp : dateTime [1..1]
}

class Concept {
  code : code [1..1]
  display : string [0..1]
}

class ConceptDefinition {
  system : uri [0..1]
  version : string [0..1]
}

class ConceptExpanded {
  system : uri [0..1]
  version : string [0..1]
  code : code [0..1]
  display : string [0..1]
}

class Composition {
}

class Filter {
  property : code [1..1]
  op : code [1..1]
  value : string [1..1]
}

class ValueSet {
  url : uri [0..1]
  identifier : Identifier [0..*]
  version : string [0..1]
  name : string [0..1]
  title : string [0..1]
  status : code [1..1] « draft | active | retired | unknown »
  date : dateTime [0..1]
  description : markdown [0..1]
}

' ========================================
' end: definition of entities/classes
' ========================================

' ========================================
' start: definition of associations
' ========================================

ValueSet  *-- "[0..1]" Expansion : expansion
ValueSet  *-- "[0..1]" Composition : compose
Expansion *-- "[0..*]" ConceptExpanded : contains
ConceptExpanded *-- "[0..*]" Designation : designation
ConceptExpanded *-- "[0..*]" ConceptExpanded : contains
Concept *-- "[0..*]" Designation : designation
ConceptDefinition *-- "[0..*]" ValueSet : valueSet
ConceptDefinition *-- "[0..*]" Concept : concept
ConceptDefinition *-- "[0..*]" Filter : filter
Composition *-- "[1..*]" ConceptDefinition : include
Composition *-- "[0..*]" ConceptDefinition : exclude

' ========================================
' end: definition of associations
' ========================================


' ========================================
' start: definition of notes
' ========================================

' ========================================
' end: definition of notes
' ========================================

@enduml
